HIERARCHY
ROOT Hips
{
	OFFSET 0.000000 0.000000 0.000000 
	CHANNELS 6 Xposition Yposition Zposition Yrotation Zrotation Xrotation 
	JOINT Lumbar
	{
		OFFSET 0.000000 0.000000 0.000000 
		CHANNELS 3 Zrotation Xrotation Yrotation
		JOINT Neck
		{
			OFFSET 0.000000 0.445665 0.000000 
			CHANNELS 3 Zrotation Xrotation Yrotation
			End Site
			{
				OFFSET 0.000000 0.227535 0.000000 
			}
		}
		JOINT RightShoulder
		{
			OFFSET 0.019635 0.377685 0.194865 
			CHANNELS 3 Zrotation Xrotation Yrotation
			JOINT RightElbow
			{
				OFFSET 0.000000 -0.243375 0.000000 
				CHANNELS 2 Zrotation Yrotation
				JOINT RightWrist
				{
					OFFSET 0.000000 -0.264825 0.000000 
					CHANNELS 2 Zrotation Xrotation
					End Site
					{
						OFFSET 0.006600 -0.176220 0.000990 
					}
				}
			}
		}
		JOINT LeftShoulder
		{
			OFFSET 0.019635 0.377685 -0.194865 
			CHANNELS 3 Zrotation Xrotation Yrotation
			JOINT LeftElbow
			{
				OFFSET 0.000000 -0.243375 0.000000 
				CHANNELS 2 Zrotation Yrotation
				JOINT LeftWrist
				{
					OFFSET 0.000000 -0.264825 0.000000 
					CHANNELS 2 Zrotation Xrotation
					End Site
					{
						OFFSET 0.006600 -0.176220 -0.000990 
					}
				}
			}
		}
	}
	JOINT RightHip
	{
		OFFSET 0.052140 -0.069960 0.075570 
		CHANNELS 3 Zrotation Xrotation Yrotation
		JOINT RightKnee
		{
			OFFSET 0.000000 -0.402270 0.000000 
			CHANNELS 1 Zrotation
			JOINT RightAnkle
			{
				OFFSET 0.000000 -0.404085 0.000000 
				CHANNELS 3 Zrotation Xrotation Yrotation
				End Site
				{
					OFFSET 0.204105 -0.089430 0.008415 
				}
			}
		}
	}
	JOINT LeftHip
	{
		OFFSET 0.052140 -0.069960 -0.075570 
		CHANNELS 3 Zrotation Xrotation Yrotation
		JOINT LeftKnee
		{
			OFFSET 0.000000 -0.402270 0.000000 
			CHANNELS 1 Zrotation
			JOINT LeftAnkle
			{
				OFFSET 0.000000 -0.404085 0.000000 
				CHANNELS 3 Zrotation Xrotation Yrotation
				End Site
				{
					OFFSET 0.204105 -0.089430 -0.008415 
				}
			}
		}
	}
}
MOTION
Frames: 19
Frame Time: 0.02
-0.00014 4e-05 3e-05 20.23797 -34.95749 -3.06824 57.77101 -0.23014 0.06067 -10.0856 -1.66702 -0.14204 153.88799 -78.84927 -55.01494 12.81258 88.74135 2.00547 -6.21907 169.87824 78.08078 57.55705 11.02507 -76.15767 0.96805 8.41718 50.67291 -0.41224 1.1982 -18.95082 -9.22699 -5.81134 -3.88959 53.41674 2.44709 4.86107 -24.33915 -8.68549 5.15059 3.54482
-0.00024 3e-05 0 20.24771 -34.96258 -3.07333 57.76562 -0.23827 0.06051 -10.12941 -1.65505 -0.14148 154.03003 -78.84974 -54.90927 12.79913 88.74284 2.04937 -6.21196 169.87789 78.023 57.82386 10.96726 -76.15175 1.01434 8.36538 50.67837 -0.51051 0.61763 -18.95042 -9.16362 -5.77014 -3.86303 53.42788 2.46403 4.94853 -24.33936 -8.67769 5.15181 3.54039
-0.00034 1e-05 -3e-05 20.25742 -34.96764 -3.0784 57.76024 -0.24638 0.06034 -10.17319 -1.64312 -0.14092 154.17136 -78.8503 -54.80406 12.78568 88.74431 2.09315 -6.20485 169.8775 77.96543 58.09066 10.90945 -76.14584 1.06062 8.31359 50.68381 -0.60856 0.03844 -18.95001 -9.1004 -5.72904 -3.83653 53.43897 2.48097 5.03603 -24.33958 -8.66989 5.153 3.53594
-0.00043 0 -5e-05 20.26713 -34.97271 -3.08348 57.75486 -0.25449 0.06017 -10.21688 -1.63119 -0.14036 154.31307 -78.85077 -54.69866 12.77227 88.74581 2.13691 -6.19776 169.87725 77.90781 58.35684 10.85181 -76.13992 1.10678 8.26194 50.68926 -0.70655 -0.54041 -18.9496 -9.03721 -5.68796 -3.81005 53.45007 2.49786 5.12326 -24.33979 -8.66211 5.15422 3.53152
-0.00053 -1e-05 -8e-05 20.27684 -34.9778 -3.08856 57.74947 -0.26261 0.06 -10.26057 -1.61924 -0.1398 154.45519 -78.85115 -54.59293 12.75886 88.74728 2.1808 -6.19067 169.87676 77.85003 58.62254 10.79421 -76.13405 1.15294 8.21028 50.69474 -0.80473 -1.12045 -18.94919 -8.9739 -5.6468 -3.78351 53.46123 2.51472 5.21036 -24.34 -8.65436 5.15547 3.52711
-0.00063 -2e-05 -0.00011 20.28657 -34.98278 -3.09363 57.7441 -0.27071 0.05986 -10.30453 -1.60733 -0.13925 154.59462 -78.85211 -54.48895 12.7453 88.74874 2.22435 -6.18351 169.87642 77.79296 58.89156 10.73594 -76.12807 1.19946 8.1582 50.70007 -0.90248 -1.69782 -18.94879 -8.91088 -5.60582 -3.75709 53.47218 2.53185 5.29869 -24.34023 -8.64642 5.15653 3.5226
-0.00073 -3e-05 -0.00013 20.29626 -34.988 -3.09872 57.73872 -0.27884 0.05964 -10.34789 -1.59536 -0.13869 154.74035 -78.8518 -54.38106 12.7321 88.75036 2.26851 -6.1765 169.87657 77.73434 59.15402 10.67915 -76.12221 1.24516 8.10716 50.70571 -1.00099 -2.27995 -18.94837 -8.84733 -5.56451 -3.73047 53.48354 2.54842 5.38441 -24.34043 -8.63888 5.15799 3.51829
-0.00083 -5e-05 -0.00016 20.30597 -34.99298 -3.10379 57.73332 -0.28694 0.0595 -10.39183 -1.58344 -0.13813 154.87838 -78.85283 -54.27768 12.71848 88.75155 2.31216 -6.16935 169.87481 77.67746 59.42176 10.62087 -76.11642 1.29168 8.05493 50.71106 -1.0988 -2.85763 -18.94797 -8.78427 -5.52351 -3.70403 53.49451 2.56551 5.47259 -24.34065 -8.63097 5.15907 3.5138
-0.00092 -6e-05 -0.00019 20.31575 -34.99775 -3.10883 57.72798 -0.295 0.05947 -10.43641 -1.57159 -0.13757 155.01453 -78.85486 -54.17622 12.70472 88.75332 2.35498 -6.16205 169.87648 77.62148 59.69928 10.56124 -76.11002 1.33898 8.00208 50.71606 -1.19583 -3.43044 -18.94759 -8.72176 -5.48284 -3.67781 53.50507 2.5832 5.56368 -24.34088 -8.62261 5.1597 3.50909
-0.00103 -7e-05 -0.00021 20.32528 -35.00396 -3.11405 57.72253 -0.30331 0.05883 -10.4771 -1.55937 -0.13701 155.18414 -78.84921 -54.05288 12.6929 88.75507 2.40196 -6.15565 169.87575 77.55665 59.93055 10.51077 -76.10501 1.38116 7.9553 50.72311 -1.29759 -4.03301 -18.94705 -8.65594 -5.44015 -3.6503 53.51817 2.59734 5.63773 -24.34101 -8.61684 5.16296 3.50565
-0.00112 -8e-05 -0.00024 20.33526 -35.00699 -3.11885 57.71717 -0.31109 0.05946 -10.52611 -1.54792 -0.13647 155.26871 -78.861 -53.98263 12.67627 88.75477 2.44056 -6.14736 169.86902 77.5128 60.2529 10.44011 -76.09842 1.4345 7.89414 50.72578 -1.38918 -4.5716 -18.9469 -8.59721 -5.4018 -3.62555 53.5258 2.61901 5.7479 -24.3414 -8.6056 5.16066 3.49953
-0.00117 -0.0001 -0.0003 20.34727 -35.00243 -3.12286 57.71318 -0.31752 0.0638 -10.59727 -1.53859 -0.13584 155.2093 -78.91098 -54.00772 12.6505 88.76184 2.45041 -6.13471 169.88727 77.50993 60.84933 10.32027 -76.08074 1.51518 7.80363 50.71696 -1.4541 -4.94269 -18.94752 -8.55734 -5.37495 -3.60806 53.51932 2.66118 5.95617 -24.34219 -8.57918 5.14308 3.48598
-0.0012 -0.00013 -0.00037 20.35961 -34.99447 -3.12636 57.70899 -0.32345 0.06934 -10.67693 -1.52998 -0.1353 155.02957 -78.98027 -54.09893 12.61808 88.76164 2.4513 -6.12071 169.85787 77.53244 61.51068 10.17879 -76.06568 1.60716 7.69514 50.70371 -1.50854 -5.24781 -18.94863 -8.52473 -5.35257 -3.59341 53.50723 2.71083 6.20049 -24.34333 -8.54732 5.11995 3.46976
-0.00125 -0.00015 -0.00043 20.37124 -34.98735 -3.12987 57.70421 -0.3295 0.07422 -10.75309 -1.5211 -0.13473 154.86993 -79.04703 -54.18831 12.58739 88.75984 2.4621 -6.10591 169.86657 77.55256 62.15473 10.04342 -76.05012 1.69672 7.59044 50.69209 -1.56696 -5.57819 -18.94967 -8.48917 -5.3284 -3.57767 53.49703 2.75729 6.42946 -24.34449 -8.51803 5.09933 3.45479
-0.00128 -0.00017 -0.0005 20.38513 -34.98321 -3.1344 57.70257 -0.33582 0.07971 -10.82763 -1.5122 -0.13387 154.93155 -79.08744 -54.1444 12.56648 88.79021 2.45483 -6.09424 169.94542 77.529 62.83816 9.92461 -76.01961 1.77689 7.51111 50.68185 -1.62872 -5.92942 -18.94989 -8.45207 -5.30314 -3.56107 53.48939 2.80331 6.6558 -24.34481 -8.48819 5.07865 3.4396
-0.00133 -0.0002 -0.00056 20.39454 -34.97204 -3.13657 57.69402 -0.34168 0.08408 -10.90769 -1.50326 -0.13395 154.40917 -79.18732 -54.41171 12.51821 88.73748 2.4748 -6.07931 169.69173 77.60886 63.34117 9.76509 -76.03597 1.87675 7.36602 50.66796 -1.68097 -6.22026 -18.95215 -8.42001 -5.28133 -3.54698 53.47537 2.85149 6.8941 -24.34708 -8.45835 5.05691 3.42432
-0.0014 -0.00028 -0.00059 20.39022 -34.94267 -3.13329 57.66894 -0.34473 0.08603 -10.99896 -1.49605 -0.13363 153.13672 -79.44002 -55.34255 12.44606 88.59035 2.64139 -6.0228 170.09127 77.90293 64.35224 9.50989 -76.04006 2.04716 7.12228 50.64311 -1.71053 -6.3724 -18.95819 -8.39907 -5.26693 -3.53852 53.44299 2.90836 7.17414 -24.3536 -8.42864 5.03258 3.40868
-0.00148 -0.00037 -0.00061 20.3817 -34.90641 -3.12747 57.63627 -0.34771 0.08653 -11.09528 -1.4884 -0.13471 151.14184 -79.74852 -56.59957 12.33982 88.34218 2.82156 -5.96759 169.90963 78.30521 65.02301 9.21396 -76.10941 2.23148 6.80149 50.61536 -1.7308 -6.46418 -18.96672 -8.38309 -5.25601 -3.53258 53.40501 2.96631 7.46177 -24.36228 -8.39932 5.00758 3.39318
-0.00157 -0.00046 -0.00063 20.37585 -34.87286 -3.12224 57.60564 -0.35175 0.08718 -11.19133 -1.47965 -0.13716 148.91021 -80.04176 -57.84827 12.21313 88.04372 2.95168 -5.93544 168.91644 78.70975 65.13551 8.92713 -76.25176 2.39954 6.46043 50.58988 -1.75457 -6.57536 -18.97509 -8.36559 -5.24421 -3.5259 53.37067 3.02079 7.73432 -24.37061 -8.37059 4.98358 3.37812
